<svg width="41" height="40" viewBox="0 0 41 40" fill="none" xmlns="http://www.w3.org/2000/svg">
<rect x="0.400024" width="40" height="40" rx="12" fill="#EBF9FE"/>
<path d="M23.9777 11.382L25.9777 12.4315C28.1294 13.5607 29.2052 14.1252 29.8026 15.1397C30.4 16.1542 30.4 17.4167 30.4 19.9415V20.0585C30.4 22.5833 30.4 23.8458 29.8026 24.8603C29.2052 25.8748 28.1294 26.4393 25.9777 27.5685L23.9777 28.618C22.2221 29.5393 21.3443 30 20.4 30C19.4558 30 18.5779 29.5393 16.8223 28.618L14.8223 27.5685C12.6707 26.4393 11.5948 25.8748 10.9974 24.8603C10.4 23.8458 10.4 22.5833 10.4 20.0585V19.9415C10.4 17.4167 10.4 16.1542 10.9974 15.1397C11.5948 14.1252 12.6707 13.5607 14.8223 12.4315L16.8223 11.382C18.5779 10.4607 19.4558 10 20.4 10C21.3443 10 22.2221 10.4607 23.9777 11.382Z" stroke="#0AABE2" stroke-width="1.5" stroke-linecap="round"/>
<path d="M29.4 15.5L20.4 20M20.4 20L11.4 15.5M20.4 20V29.5" stroke="#0AABE2" stroke-width="1.5" stroke-linecap="round"/>
</svg>
